<?xml version="1.0" encoding="utf-8"?>
<!-- Generator: Adobe Illustrator 25.2.1, SVG Export Plug-In . SVG Version: 6.00 Build 0)  -->
<svg version="1.1" id="圖層_1" xmlns="http://www.w3.org/2000/svg" xmlns:xlink="http://www.w3.org/1999/xlink" x="0px" y="0px"
	 viewBox="0 0 150.4 46" style="enable-background:new 0 0 150.4 46;" xml:space="preserve">
<style type="text/css">
	.st0{fill:#FFFFFF;}
	.st1{fill:#FBC82B;}
	.st2{clip-path:url(#SVGID_2_);}
</style>
<g>
	<g>
		<polygon class="st0" points="60,2.4 53.4,12.4 59.8,12.4 64.8,4.9 69.8,12.4 76,12.4 69.4,2.4 		"/>
		<polygon class="st0" points="67.6,11.2 61.9,11.2 61.9,14.2 53.6,14.2 53.6,16 68.9,16 64,24.2 70.1,24.2 75.9,14.2 67.6,14.2 		
			"/>
		<path class="st0" d="M78.5,24.3h18.3c1.2,0,2.3-1,2.3-2.2V2.8H78.5V24.3z M84.1,4.5h9.3v8.1h-9.3V4.5z M84.1,14.4h9.3v7.5
			c0,0.3-0.3,0.7-0.7,0.7h-8.6V14.4z"/>
		<polygon class="st0" points="113.8,4 110.5,4 110.5,2.3 106,2.3 106,4 102.7,4 102.7,5.8 113.8,5.8 		"/>
		<polygon class="st0" points="110.9,16.9 111.4,24.1 114.1,24.1 113.6,16.9 		"/>
		<polygon class="st0" points="103,16.9 102.5,24.1 105.3,24.1 105.8,16.9 		"/>
		<polygon class="st0" points="119.2,4.7 124.4,4.7 124.4,2.9 114.9,2.9 114.9,24.3 119.2,24.3 119.2,10.4 120.3,10.4 120.3,24.3 
			124.2,24.3 124.2,10.4 125,10.4 125,8.6 119.2,8.6 		"/>
		<path class="st0" d="M113.7,13.9h-3.1v-2.4h3.5V9.8h-1.3l0.6-3.1h-3.7L109,9.8h-1.5l-0.6-3.1h-3.7l0.6,3.1h-1.3v1.7h3.9v2.4h-3.5
			v1.7h3.5v6.7c0,0.4-0.3,0.6-0.7,0.6h-0.1v1.3h2.3c1.5,0,2.7-1.2,2.7-2.6v-6h3.1V13.9z"/>
		<path class="st0" d="M145.2,2.4v19.5c0,0.4-0.3,0.6-0.7,0.6h-1.1v-0.6h1.3v-2h-1.3V14h1.3v-2h-11.2v2h1.3v5.9h-1.3v2h7.1v2.3h2.4
			l0,0h4.8c1.2,0,2.3-1,2.3-2.2L150.4,3L145.2,2.4z M137.6,14h3.2v1h-3.2V14z M137.6,16.6h3.2v1h-3.2V16.6z M140.8,19.9h-3.2V19h3.2
			V19.9z"/>
		<rect x="128.2" y="2.4" class="st0" width="4.9" height="21.9"/>
		<polygon class="st0" points="138.8,2.9 133.7,2.9 133.7,4.6 135.9,4.6 135.9,6 133.7,6 133.7,7.8 135.9,7.8 135.9,9.2 133.5,9.2 
			133.5,10.9 138.8,10.9 		"/>
		<polygon class="st0" points="144.8,9.2 142.4,9.2 142.4,7.8 144.6,7.8 144.6,6 142.4,6 142.4,4.6 144.7,4.6 144.7,2.9 139.5,2.9 
			139.5,10.9 144.8,10.9 		"/>
	</g>
	<g>
		<polygon class="st0" points="63.2,37.4 58.9,28.6 54,28.6 54,43.7 58.1,43.7 58.1,34.7 62.6,43.7 67.3,43.7 67.3,28.6 63.2,28.6 
					"/>
		<path class="st0" d="M68.6,31.6v12h10.7c1.8,0,3.2-1.4,3.2-3.2v-12H71.8C70.1,28.4,68.6,29.9,68.6,31.6z M72.8,31.3
			c0-0.7,0.6-1.3,1.3-1.3h4.2v10.7c0,0.7-0.6,1.3-1.3,1.3h-4.2V31.3z"/>
		<polygon class="st0" points="95.9,37.8 94.2,28.8 90.6,28.8 88.9,37.8 87.4,28.6 83.5,28.6 85.9,43.7 91.1,43.7 92.4,36.8 
			93.7,43.7 98.9,43.7 101.2,28.6 97.3,28.6 		"/>
		<polygon class="st0" points="109.1,38.4 105.9,31.9 102.1,31.8 102.1,43.3 105.3,43.3 105.3,36.7 108.6,43.3 112.3,43.3 
			112.3,31.9 109.1,31.9 		"/>
		<polygon class="st0" points="114.1,43.3 117.2,43.3 123.7,43.3 123.7,42.1 117.4,42.1 117.4,38 123.4,38 123.4,36.8 117.4,36.8 
			117.4,33.1 123.7,33.1 123.7,31.8 114.1,31.8 		"/>
		<polygon class="st0" points="134,38.6 132.8,32 130,32 128.8,38.5 127.8,31.8 124.7,31.8 126.5,43.3 130.5,43.3 131.4,38.4 
			132.4,43.3 136.4,43.3 138.2,31.8 135.1,31.8 		"/>
		<path class="st0" d="M143.6,33.1h6.3v-1.3h-8c-1.4,0-2.5,1.1-2.5,2.4V38h7.3v3.1c0,0.5-0.4,0.9-0.9,0.9h-6.3v1.3h8
			c1.4,0,2.5-1.1,2.5-2.4v-4.2h-7.3V34C142.6,33.5,143,33.1,143.6,33.1z"/>
	</g>
</g>
<g>
	<rect class="st1" width="46" height="46"/>
	<polygon class="st0" points="46,21.8 0,33.7 0,0 46,0 	"/>
	<g>
		<defs>
			<rect id="SVGID_1_" width="46" height="46"/>
		</defs>
		<clipPath id="SVGID_2_">
			<use xlink:href="#SVGID_1_"  style="overflow:visible;"/>
		</clipPath>
		<g class="st2">
			<path d="M48.7,24.1c-0.1-0.1-0.2-0.3-0.2-0.5c0-0.4-0.2-0.8-0.5-1.2c0-0.1,0-0.1-0.1-0.2c-0.2-0.1-0.4-0.3-0.6-0.4
				c-0.4-0.2-0.8-0.5-1.2-0.6c-0.2-0.1-0.4-0.2-0.6-0.3c-0.2-0.1-0.4-0.2-0.6-0.3c-0.1-0.1-0.2-0.2-0.3-0.2
				c-0.3-0.1-0.5-0.2-0.8-0.4c-0.3-0.1-0.7-0.3-1-0.4c-0.2-0.1-0.4-0.2-0.7-0.1c0,0-0.1,0-0.1,0c-0.1-0.1-0.2-0.1-0.3-0.2
				c-0.1-0.1-0.2-0.1-0.4-0.2c-0.1,0.1-0.2,0-0.3-0.1c-0.3-0.1-0.6-0.2-0.9-0.2c-0.2,0-0.4-0.1-0.6-0.1c-0.3,0-0.5-0.1-0.8-0.1
				c-0.4-0.1-0.7-0.2-1.1-0.3c-0.2-0.1-0.4-0.1-0.5-0.2c-0.3-0.1-0.5-0.2-0.7-0.4c-0.1,0-0.1,0-0.2-0.1c-0.3-0.2-0.6-0.3-1-0.4
				c0,0,0,0-0.1-0.1c0,0-0.1-0.1-0.1-0.1c-0.3,0-0.6-0.1-0.9-0.1c-0.5,0-1-0.1-1.5-0.1c-0.1,0-0.1,0-0.2,0C32.3,17.1,32.1,17,32,17
				c0,0,0-0.1-0.1-0.1c0,0,0,0,0-0.1c-0.1,0-0.2,0-0.3,0.1c0,0-0.1,0.1-0.1,0.1c-0.3,0-0.5,0-0.8,0c0,0,0,0-0.1,0c0,0,0-0.1,0.1-0.1
				c-0.2-0.1-0.1,0.1-0.1,0.2c-0.3,0-0.6,0-0.9,0.1c-0.3,0-0.6,0-0.9,0.1c-0.3,0-0.6,0.1-0.9,0.1c-0.3,0.1-0.6,0.1-0.9,0.2
				c-0.3,0.1-0.6,0.1-0.9,0.2c0-0.1,0.1-0.1,0.1-0.2c-0.2,0-0.4,0.1-0.5,0.2c-0.1,0.1-0.1,0.1-0.2,0.1c-0.2,0.1-0.5,0.1-0.7,0.2
				c0,0-0.1,0-0.2,0c-0.1,0.1-0.3,0.2-0.5,0.2c-0.1,0-0.3,0.1-0.5,0.1c0,0,0-0.1,0.1-0.1c0.2-0.2,0.3-0.4,0.5-0.6
				c0.2-0.2,0.3-0.5,0.4-0.7c0-0.1,0-0.2,0-0.3c0-0.2,0.1-0.4,0.3-0.4c0.1,0,0.3-0.2,0.2-0.3c0-0.1,0-0.2,0-0.3
				c0.1-0.1,0.1-0.2,0.1-0.3c0-0.2,0.1-0.4,0.1-0.6c0-0.3,0-0.5,0-0.8c-0.2,0-0.4-0.1-0.6,0c-0.2,0-0.5,0-0.7,0.1
				c-0.3,0-0.6,0.1-0.8,0.1c-0.1,0-0.3,0-0.4,0c-0.1,0-0.2-0.1-0.3-0.1c-0.3,0.1-0.3-0.2-0.4-0.3c-0.1-0.1-0.2-0.2-0.3-0.2
				c0,0-0.1,0-0.1,0c0.1-0.1,0.2-0.2,0.2-0.2c0-0.1,0.1-0.1,0.1-0.2c0.1-0.1,0.3-0.1,0.4-0.2c0.1-0.2,0.3-0.3,0.5-0.3
				c0.2-0.1,0.4-0.1,0.5-0.4c0-0.2,0.2-0.4,0.5-0.3c0,0,0.1,0,0.1,0c0.2-0.1,0.4-0.2,0.5-0.4c0.1-0.1,0.2-0.1,0.3-0.2
				c0,0,0.1,0,0.1-0.1c0.2-0.2,0.3-0.3,0.6-0.3c0.1,0,0.1,0,0.2,0.1c0,0.3-0.2,0.6-0.5,0.7c-0.1,0-0.1,0-0.2,0.1
				c-0.1,0-0.2,0.1-0.2,0.1c0,0-0.1,0-0.1,0.1c-0.1,0.2-0.2,0.2-0.4,0.2c-0.1,0-0.2,0.1-0.3,0.2c0,0.2-0.1,0.3-0.1,0.4
				c0.1,0,0.3,0,0.4-0.1c0,0,0,0,0.1,0c0,0,0.1-0.1,0.1-0.1c0,0.1,0.1,0.1,0.1,0.2c0,0.1,0,0.2,0,0.3c0.1,0.1,0,0.2-0.1,0.3
				c0,0-0.1,0.1-0.1,0.1c0.1,0,0.2,0,0.3,0c0.1,0,0.1,0,0.2-0.1c0.1,0,0.1-0.1,0.2-0.1c0.3-0.1,0.7-0.2,0.9-0.4
				c0.2-0.2,0.3-0.3,0.5-0.4c0.2-0.1,0.3-0.3,0.5-0.4c0.2-0.1,0.3-0.3,0.6-0.2c0,0.1,0,0.1,0,0.2c0.1,0.1,0.2,0.1,0.3,0.1
				c0.2,0.1,0.2,0.1,0.4-0.1c0.1-0.1,0.3-0.3,0.4-0.4c0.1-0.1,0.2-0.1,0.3-0.2c0.1-0.2,0.3-0.2,0.5-0.2c0.1,0,0.3-0.1,0.4-0.2
				c0,0,0-0.1,0-0.1c-0.1-0.2,0-0.2,0.2-0.2c0,0.2-0.1,0.4-0.1,0.6c0,0,0,0,0.1,0c0.1,0,0.1-0.1,0.2-0.1c0,0,0.1,0,0.1,0
				c0.1,0,0.1,0,0.2,0c0.3,0,0.5-0.2,0.8-0.3c0.1,0,0.2-0.1,0.3-0.1c0.2-0.1,0.4-0.1,0.5-0.2c0.2,0,0.4-0.1,0.6-0.1
				c0.2-0.1,0.4-0.2,0.6,0c0,0,0.1,0,0.1,0c0.1,0,0.3,0,0.4,0.1c0.2,0.1,0.5,0.3,0.7,0.5c0-0.1,0-0.3-0.1-0.4c0-0.1,0-0.2,0.1-0.2
				c0.1-0.1,0.2-0.2,0.3-0.3c0,0,0.1-0.1,0-0.1c-0.1-0.1-0.2-0.3-0.3-0.4c0,0-0.1,0-0.1,0c-0.2,0.1-0.3,0.1-0.4,0
				c-0.4-0.1-0.7-0.5-1-0.7c-0.1,0-0.1-0.1-0.2-0.2c0,0,0-0.1,0-0.1c0,0,0.1,0,0.1,0c0.1,0.1,0.2,0,0.2,0c0.1,0,0.1-0.1,0.2,0
				c0.1,0.1,0.2,0.1,0.3,0.1c0.2,0,0.3-0.2,0.3-0.3c-0.1,0-0.1,0-0.2,0c-0.1,0-0.2,0-0.2-0.1c0-0.1,0-0.3-0.1-0.4
				c-0.1,0-0.2,0-0.3,0c-0.1-0.1-0.2-0.2-0.3-0.3c-0.1,0-0.2,0-0.3,0.1c-0.1-0.1-0.2-0.2-0.3-0.4c0,0,0-0.1,0-0.2c0,0,0.1,0,0.1,0
				c0.1,0,0.3,0,0.4,0c0.2-0.1,0.4,0.1,0.6,0.1c0.1,0,0.1,0,0.2,0c0-0.1,0-0.1,0-0.2c0-0.1,0-0.1-0.1-0.1c-0.1-0.1-0.1-0.2-0.2-0.3
				c-0.2-0.1-0.3-0.2-0.4-0.4c0,0-0.1-0.1-0.1-0.1c-0.1,0-0.3-0.1-0.4-0.1c-0.3-0.1-0.5-0.2-0.7-0.4c-0.1-0.1-0.1-0.1,0-0.2
				c0.2,0,0.4-0.2,0.6-0.2c0.1,0,0.2-0.1,0.4-0.1c0,0,0-0.2,0-0.2c0-0.1,0-0.1,0.1-0.2c0.1,0,0.2-0.1,0.2-0.2c0-0.2,0-0.4-0.2-0.5
				C32.2,4,32,3.8,32.1,3.5c0,0,0,0,0,0c-0.2-0.2-0.2-0.5-0.5-0.6c0,0-0.1-0.1-0.1-0.1c-0.1-0.1-0.1-0.1-0.2-0.2
				c-0.1-0.1-0.3-0.2-0.4-0.3c-0.2-0.2-0.4-0.4-0.7-0.5c-0.3-0.1-0.5-0.3-0.7-0.4c-0.1-0.1-0.2-0.2-0.3-0.3C29.2,1,29.1,0.9,29,0.8
				c-0.1-0.2-0.3-0.3-0.5-0.5c-0.1-0.1-0.2-0.2-0.1-0.4c0-0.1,0.1-0.2-0.1-0.3c-0.1,0-0.1-0.2-0.3-0.2c-0.1,0-0.3-0.1-0.4-0.1
				c0,0,0,0-0.1,0c-0.1,0-0.1-0.1-0.2-0.1c-0.1,0.1-0.1,0.1-0.2,0.1c-0.4,0.1-0.7,0.1-1.1-0.1c-0.1,0-0.1,0-0.2,0
				c-0.1,0.1-0.3,0.1-0.4,0.2c0,0-0.1,0-0.1,0.1c-0.2,0.1-0.3,0.3-0.5,0.4c-0.1,0.1-0.3,0.1-0.2,0.3c0,0,0,0-0.1,0.1
				c-0.1,0.1-0.3,0.2-0.4,0.3c-0.1,0-0.1,0-0.1,0.1c0,0,0,0-0.1,0c-0.1,0-0.1,0-0.2,0C24,0.9,24,0.9,23.8,1
				c-0.4,0.2-0.7,0.4-1.1,0.6c-0.1,0.1-0.1,0.1-0.1,0.3c0,0.1,0,0.1-0.1,0.2c-0.1,0.1-0.2,0.1-0.3,0.2c-0.5,0.3-1.1,0.6-1.6,1
				c-0.1,0.1-2,1.5-2.1,1.6c0.3-0.1,2.3-1.5,2.5-1.6c0.1,0,0.2,0,0.2,0c0.1,0.1,0.2,0,0.2,0C21.6,3.2,21.8,3,22,2.9
				c0.4-0.2,0.7-0.4,1.1-0.6c0.3-0.1,0.5-0.4,0.9-0.2c0,0.1,0.1,0.2,0.1,0.3c-0.1,0.1-0.3,0.2-0.4,0.3c0,0-0.1,0-0.1,0.1
				C23.3,3,23.1,3.1,23,3.3c0,0,0,0,0,0c-0.1,0.1-0.2,0.1-0.3,0.2c-0.1,0-0.1,0.1-0.2,0.1c-0.2,0.1-0.3,0.2-0.5,0.3
				c0,0.1,0,0.1,0,0.2c-0.2,0-0.2,0.1-0.3,0.2c0,0.1-0.1,0.1-0.2,0.2c-0.1,0-0.1,0.1-0.2,0.1C21,4.8,20.8,5,20.5,5.1
				c-0.3,0.2-0.7,0.5-1,0.7c-0.3,0.2-0.5,0.4-0.8,0.6c-0.2,0.1-0.3,0.2-0.5,0.3C18,7,17.8,7.2,17.5,7.5c-0.1,0-0.1,0.1-0.2,0.1
				c-0.2,0.1-0.3,0.2-0.5,0.3c-0.3,0.3-0.6,0.5-0.9,0.9c-0.1,0.2-0.3,0.3-0.5,0.5c-0.1,0.1-0.2,0.2-0.3,0.3
				c-0.3,0.3-0.5,0.5-0.8,0.8c-0.1,0.1-0.3,0.2-0.4,0.4c-0.2,0.2-0.4,0.4-0.6,0.7c-0.1,0.1-0.1,0.2-0.2,0.3
				c-0.1,0.2-0.3,0.3-0.4,0.4c-0.1,0.2-0.4,0.2-0.4,0.5c0,0,0,0-0.1,0c-0.2,0.2-0.5,0.4-0.7,0.7c-0.1,0.1-0.2,0.3-0.4,0.5
				c-0.1,0.1-0.2,0.2-0.3,0.4c-0.3,0.3-0.5,0.6-0.8,1c-0.1,0.1-0.1,0.1-0.1,0.2c-0.2,0.2-0.4,0.4-0.6,0.6C9.3,16,9.1,16.2,9,16.3
				c-0.1,0.1-0.2,0.2-0.2,0.3c-0.1,0.2-0.3,0.4-0.5,0.6c-0.1,0.1-0.3,0.1-0.2,0.3c0,0,0,0.1,0,0.1c-0.2,0.1-0.3,0.3-0.4,0.4
				c-0.1,0.2-0.3,0.4-0.4,0.6c0,0,0,0,0,0.1c0,0.1,0,0.2-0.1,0.2c0,0-0.1,0-0.1,0.1c0,0.2-0.1,0.2-0.2,0.3c0,0-0.1,0-0.1,0.1
				c0,0.2-0.2,0.3-0.3,0.4c-0.1,0.1-0.1,0.2-0.2,0.3c-0.1,0.1-0.1,0.2-0.2,0.2c-0.1,0.1-0.2,0.1-0.3-0.1c0,0.1,0,0.1,0,0.2
				c-0.1,0-0.1,0-0.2-0.1c0,0.1,0,0.2,0,0.3c-0.2-0.1-0.2-0.1-0.4,0.2C5.1,20.9,5,20.9,4.9,21c0,0-0.1,0-0.1,0c0,0,0,0,0-0.1
				c0-0.1,0.1-0.2,0.1-0.3c0.1-0.2,0.3-0.3,0.4-0.6c0.1-0.2,0.2-0.4,0.4-0.6c0.1-0.1,0.1-0.2,0.1-0.3c0,0,0,0-0.1,0
				c-0.1,0.1-0.2,0.2-0.2,0.3c0,0.1-0.1,0.1-0.1,0.2c-0.1,0.1-0.2,0.3-0.3,0.4c-0.1,0.1-0.1,0.1-0.2,0c-0.1,0.1-0.3,0.3-0.4,0.4
				c0-0.1,0-0.2,0-0.2c0,0,0.1,0,0.1,0c0,0,0,0,0,0c-0.1,0-0.1,0-0.2,0c0,0,0,0.1,0,0.1c0,0.1,0,0.1-0.1,0.1c0,0-0.1,0-0.1,0
				c0,0,0-0.1,0-0.1c0.1-0.2,0.1-0.3,0.3-0.4c0,0,0,0,0-0.1c0-0.2,0.1-0.3,0.3-0.4C4.7,19.2,5,19.2,5,19.1c0,0.1,0.1,0.1,0.2,0.2
				c0.2-0.3,0.4-0.5,0.5-0.8c0,0,0,0,0,0c-0.2,0.1-0.4,0.2-0.6,0.3c0,0,0,0,0-0.1c0.2-0.4,0.5-0.7,0.8-1.1c-0.2,0.1-0.3,0.2-0.5,0.2
				c0,0.1,0,0.1,0,0.2c0,0-0.1,0-0.1,0c0,0,0,0,0.1,0c-0.1,0.1-0.1,0.2-0.2,0.3c0,0,0,0,0.1,0.1c0,0-0.1,0-0.1,0.1c0,0-0.1,0-0.1,0
				c0,0,0,0.1,0,0.1c0,0,0,0.1,0,0.1c0,0-0.1,0-0.1,0c0,0.2,0,0.3-0.3,0.4c0.1,0,0.1,0,0.2,0.1c-0.1,0-0.1,0.2-0.2,0.1
				c0,0.1-0.1,0.2-0.2,0.3c0,0,0,0,0,0.1c0.1,0.2,0.1,0.2-0.1,0.2c-0.1,0-0.1,0-0.1,0.1c0.1,0.1,0,0.3-0.1,0.4
				c-0.1,0-0.2,0.1-0.2,0.2c0,0.1-0.1,0.1-0.2,0.1c0,0.1-0.2,0.2-0.1,0.3c0,0,0,0.1-0.1,0.2c-0.1,0.1-0.1,0.1-0.2,0.1c0,0,0,0,0,0
				c0,0.1,0,0.2,0,0.2c-0.1,0-0.1,0-0.2,0c0,0.1-0.1,0.3-0.1,0.4c-0.1,0.1-0.2,0.3-0.2,0.4c0,0.1-0.1,0.2-0.1,0.3
				c0,0.1-0.1,0.2-0.2,0.2c0,0-0.1,0-0.1,0c0,0.1,0,0.2,0,0.2c0,0-0.1,0.1-0.1,0.1c0,0-0.1,0-0.1,0.1c0,0,0,0.1,0,0.1
				c0.1,0.1,0,0.2-0.1,0.2c0,0-0.1,0-0.1,0c0,0.1,0,0.2-0.1,0.3c-0.1,0-0.1,0.1-0.2,0.1c0,0.1,0.1,0.1,0.1,0.1c0,0,0,0-0.1,0
				c-0.1,0-0.2,0.1-0.2,0.2c0,0,0,0.1,0,0.1c-0.1,0.1-0.2,0.1-0.2,0.2c-0.2,0.4-0.5,0.8-0.7,1.2c0,0,0,0-0.1,0.1
				c-0.1,0.1-0.2,0.2-0.2,0.3c0,0.1-0.1,0.2-0.1,0.3c-0.1,0.1-0.2,0.2,0,0.3C0.1,26.8,0,26.8,0,27c0,0,0,0,0,0.1
				c-0.1,0.1-0.1,0.2-0.2,0.3c0.1,0.1,0.1,0.1,0.1,0.2c-0.1,0.1-0.1,0.3-0.3,0.3c0,0-0.1,0.1-0.2,0.2C-0.6,28-0.5,28-0.4,28
				c0,0,0,0,0.1,0.1c-0.2,0.2-0.4,0.5-0.6,0.7c0-0.1,0-0.1,0-0.2c-0.1,0-0.2,0.1-0.2,0.2c0,0,0,0.1,0,0.1c0,0,0.1,0.1,0.1,0.1
				c-0.1,0-0.1,0.1-0.2,0.1c0-0.1,0-0.1,0-0.2c-0.1,0.1-0.1,0.2-0.2,0.2c0,0,0,0,0,0c-0.1,0.1-0.1,0.3-0.3,0.4c0,0-0.1,0.1-0.1,0.1
				c0,0.1-0.1,0.1-0.1,0.2C-1.9,30-2,30-2.1,30c0,0.1,0,0.2-0.1,0.3c0,0-0.1,0-0.1,0c-0.2,0.1-0.3,0.4-0.4,0.6
				c0,0.1-0.1,0.2-0.2,0.3c0,0-0.1,0-0.1,0c0,0.2,0,0.3,0,0.5c0.1-0.2,0.2-0.3,0.3-0.4c0,0,0.2,0.1,0.2-0.1c-0.1,0-0.2,0-0.2,0.1
				c0-0.1,0-0.1,0-0.1c0.2,0,0.2-0.2,0.3-0.3c0,0,0.1,0,0.2,0c0.1,0,0.1,0,0.2-0.1c0-0.1,0.1-0.2,0.2-0.2c0.1,0,0.1,0.1,0.2,0.1
				c0,0,0,0,0,0c0.1,0,0.2,0,0.3,0.1c0,0,0,0,0,0.1c-0.1,0-0.1,0-0.2,0c-0.1,0-0.1,0.1-0.1,0.2c0.3-0.1,0.6-0.2,0.9-0.2
				c0,0,0,0,0,0.1c0,0.1,0.1,0.2-0.1,0.3c0,0.1,0,0.2-0.1,0.3c-0.1,0.2-0.2,0.3-0.3,0.5c0,0,0,0.1,0,0.1c0,0.1,0,0.1,0,0.2
				c0,0,0.1,0.1,0.2,0.2c-0.3,0.1-0.5,0.1-0.8,0.2c0.2-0.4,0.4-0.7,0.6-1.1c0,0,0,0,0,0c-0.1,0-0.1,0.1-0.2,0.1
				c-0.1,0.1-0.2,0.2-0.2,0.4c0,0.1-0.2,0.2-0.2,0.4c0,0.1,0,0.2-0.1,0.3c-0.1,0-0.2,0-0.4,0c-0.1,0-0.2,0-0.3,0.1
				c-0.2,0.1-0.2,0.1-0.2-0.1c0,0-0.1,0-0.1,0c-0.1,0-0.2,0-0.3,0.1c-0.1,0.1-0.1,0.2-0.1,0.3c0.1,0.2,0,0.5,0.2,0.7
				c0.1,0.1,0.1,0.1,0.1,0.2c0,0.2,0.2,0.4,0.3,0.6c0.1,0.2,0.2,0.3,0.2,0.5c0.1,0.1,0.1,0.3,0.2,0.3c0.2,0.1,0.3,0.2,0.4,0.4
				c0.1,0.1,0.1,0.2,0.1,0.3c0,0.1,0.1,0.1,0.1,0.2c0,0.1,0.1,0.1,0.1,0.2c0.1,0.2,0.4,0.2,0.5,0.5c0.2,0.1,0.3,0.3,0.4,0.4
				c0.2,0.2,0.3,0.4,0.4,0.6c0.2,0.2,0.4,0.4,0.6,0.6c0.1,0.1,0.1,0.2,0.2,0.2c0.2,0.1,0.4,0.2,0.7,0.3c0,0,0.1,0.1,0.1,0.1
				c0.1,0.1,0.1,0.2,0.2,0.3c0.1,0.2,0.2,0.3,0.4,0.5c0,0,0.1,0.1,0.1,0.1c0.1,0,0.2,0.1,0.3,0.1c0.1,0.1,0.1,0.2,0.2,0.2
				c0.2,0.1,0.3,0.2,0.3,0.4C2.9,40.7,3,41,3.1,41.2c0.1,0.3,0.4,0.4,0.7,0.4c0.1,0,0.2,0,0.2,0c0.4,0.1,0.8,0.4,1.1,0.8
				c0.2,0.2,0.5,0.3,0.7,0.3c0.2,0,0.3,0.1,0.3,0.3c0.2,0,0.3-0.1,0.4-0.2c0.1-0.1,0.2-0.2,0.3-0.3c0,0,0.1,0,0.2,0
				c0.1,0,0.1,0,0.2,0c0.1-0.1,0.3-0.2,0.4-0.3c0.1,0.1,0.1,0.1,0.2,0c0.1-0.1,0.2-0.1,0.3-0.2C8,42,8.1,42,8.1,41.9
				c0.4-0.3,0.7-0.6,1.1-0.8c0.4-0.3,0.7-0.6,1.1-0.9c0.1-0.1,0.2-0.1,0.2-0.2c0.3-0.3,0.6-0.6,0.9-0.8c0-0.1,0-0.2,0.1-0.2
				c0.1-0.1,0.2-0.1,0.2-0.2c0,0,0,0,0.1,0c0,0.1,0,0.1,0,0.2c0,0,0,0,0,0c0.1-0.1,0.1-0.2,0.2-0.4c0,0,0.2,0,0.2-0.1
				c0-0.2,0.2-0.2,0.3-0.3c0.1-0.1,0.3-0.1,0.3-0.3c0,0,0,0,0-0.1c0.1-0.1,0.1-0.1,0.2-0.2c0,0,0,0-0.1-0.1
				c-0.1-0.1-0.1-0.2-0.2-0.1c-0.1,0-0.1,0.1-0.1,0.2c0,0.1-0.1,0.2-0.2,0.2c-0.1,0-0.2,0-0.2,0.1c0,0.1-0.1,0.1-0.2,0.1
				C12.1,38,12.1,38,12,38c0-0.1,0.1-0.2,0.1-0.3c0,0-0.1,0-0.1,0c0-0.1,0.1-0.2,0.1-0.3c0.1-0.1,0.2-0.2,0.3-0.3
				c0.1-0.1,0.1-0.2,0.2-0.2c0.2-0.1,0.4-0.3,0.5-0.5c0.1-0.1,0.2-0.2,0.3-0.2c0.1,0,0.3,0,0.3-0.2c0-0.1,0.1-0.2,0.2-0.2
				c0.1,0,0.2-0.1,0.3-0.2c0.3-0.1,0.5-0.2,0.8-0.4c0.1-0.1,0.3-0.1,0.3-0.3c0.1,0,0.1,0.1,0.1,0.1c0-0.1,0-0.1,0.1-0.1
				c0,0,0.1,0.1,0.1,0.1c0.1-0.1,0.1-0.1,0.3-0.2c0.1,0,0.2,0,0.2-0.2c0.1-0.2,0.2-0.4,0.4-0.4c0.1,0,0.3-0.1,0.4-0.2
				c0.1-0.1,0.3-0.2,0.4-0.2c0.2-0.1,0.3-0.2,0.5-0.3c0.2-0.1,0.3-0.2,0.5-0.3c0.2-0.1,0.4-0.1,0.6-0.2c0.1,0,0.2-0.1,0.3-0.1
				c0.2-0.1,0.3-0.2,0.5-0.3c0,0,0-0.1,0-0.1c0-0.1,0.1-0.2,0.1-0.2c0.2,0.1,0.2-0.1,0.4-0.2c0,0,0.1,0,0.1-0.1
				c0.1-0.2,0.3-0.3,0.6-0.4c0.1,0,0.2-0.1,0.4-0.1c0,0,0,0,0-0.1c0,0-0.1,0-0.1,0c-0.1,0-0.2,0.1-0.2,0.1c-0.2,0-0.3,0.1-0.4,0.2
				c-0.2,0.1-0.3,0.2-0.5,0.4c0,0-0.1,0.1-0.1,0.1c-0.3-0.1-0.5,0.3-0.8,0.3c0,0,0,0,0,0c-0.1,0.2-0.3,0.2-0.5,0.1
				c-0.1,0-0.2-0.1-0.3,0c-0.1,0-0.2,0.2-0.4,0.2c-0.1,0.1-0.2,0.1-0.4,0.2c0,0,0,0,0,0c-0.1,0.1-0.2,0.2-0.2,0.3
				c-0.1,0-0.2,0-0.2,0c-0.1,0.2-0.4,0.2-0.5,0.4c0,0,0,0-0.1,0c-0.1,0.1-0.3,0.2-0.4,0.3c-0.1,0.1-0.1,0.1-0.2,0
				c-0.1,0.2-0.1,0.3-0.1,0.5c0,0,0,0.1-0.1,0.1c-0.2,0.1-0.4,0.2-0.6,0.3c-0.1,0-0.2,0-0.4,0c-0.1,0-0.1,0-0.2,0
				c-0.1,0-0.1,0.1-0.2,0.2c-0.2,0.1-0.3,0.2-0.4,0.4c-0.1,0.2-0.2,0.2-0.3,0.3c-0.3,0.1-0.5,0.2-0.7,0.4c0.1,0,0.1,0.1,0.2,0.1
				c0,0-0.1,0.1-0.1,0.1c-0.1,0-0.2,0.1-0.2,0.1c-0.2,0.2-0.5,0.4-0.7,0.6c-0.1,0-0.1-0.1-0.3-0.2c-0.1,0.3-0.3,0.5-0.6,0.7
				c-0.1,0-0.1,0.1-0.2,0.1c0,0-0.1,0-0.1,0.1c0,0.1-0.1,0.2-0.2,0.2c0,0-0.1,0-0.1,0c0,0.2-0.2,0.2-0.3,0.2c-0.1,0-0.1,0-0.2,0.1
				c-0.1,0.3-0.4,0.4-0.6,0.6c-0.2,0.1-0.4,0.2-0.6,0.2c-0.1,0-0.2,0.1-0.4,0.1c0,0-0.1-0.1-0.2-0.1c0,0,0.1-0.1,0.1-0.1
				c0,0,0.1-0.1,0.1-0.1c0,0,0-0.1,0.1-0.1c0.1-0.1,0.2-0.2,0.3-0.3c0,0,0.1-0.1,0.1-0.1c0.1-0.2,0-0.4,0.3-0.6
				c0.1,0,0.1-0.2,0.1-0.2c0.1-0.1,0.1-0.2,0.1-0.3c0-0.1,0.1-0.1,0.1-0.2c0.2-0.1,0.3-0.2,0.3-0.4c0-0.1,0-0.1,0.1-0.2
				c0.2-0.1,0.4-0.3,0.6-0.4c0.1-0.1,0.3-0.2,0.4-0.3c0.2-0.2,0.4-0.3,0.6-0.4c0.1,0,0.2-0.1,0.3-0.2c0.1-0.1,0.2-0.2,0.3-0.3
				c0.1,0,0.2-0.1,0.3-0.2c0.2-0.3,0.5-0.3,0.7-0.5c0,0,0.1,0,0.1,0c0.2-0.1,0.4-0.1,0.6-0.3c0.1-0.1,0.1-0.1,0.2-0.1
				c0.1,0,0.1-0.1,0.2-0.1c0.2-0.1,0.3-0.3,0.5-0.4c0,0,0-0.1,0-0.1c0.1,0,0.3,0,0.4,0c0,0,0,0,0,0c0,0-0.1,0-0.1-0.1
				c0.1,0,0.1-0.1,0.1-0.1c0.1-0.1,0.3-0.1,0.4-0.2c0.1-0.1,0.3-0.1,0.4-0.2c0.1,0,0.1,0,0.1-0.1c0,0,0.1-0.1,0.1-0.1
				c0.2-0.2,0.5,0.1,0.6-0.2c0-0.1,0.3-0.1,0.4-0.1c0.3-0.1,0.6-0.2,0.8-0.5c0-0.1,0.1-0.1,0.2-0.1c0,0,0.1,0,0.1,0
				c0,0,0,0.1-0.1,0.1c-0.2,0.1-0.3,0.2-0.5,0.3c-0.1,0-0.1,0.1-0.1,0.2c0.1,0,0.2-0.1,0.3-0.1c0.3-0.2,0.6-0.3,0.9-0.5
				c0.5-0.2,1-0.5,1.5-0.7c0.1,0,0.1-0.1,0.2-0.2c0.1-0.1,0.2-0.1,0.3-0.1c0.1,0,0.2,0,0.3-0.1c0,0,0.1-0.1,0.1-0.1
				c0.1,0.1,0.1,0,0.2-0.1c0,0,0.1-0.1,0.1-0.1c0.3,0,0.6-0.1,0.8-0.3c0.2-0.1,0.3-0.2,0.5-0.3c0.2-0.1,0.5-0.2,0.8-0.3
				c0.3-0.1,0.5-0.3,0.8-0.4c0.2-0.1,0.4-0.2,0.7-0.2c0.1-0.1,0.3-0.1,0.4-0.2c0.2-0.2,0.5-0.3,0.8-0.4c0.2,0,0.3,0,0.4-0.2
				c0,0,0.1,0,0.1,0c0,0,0.1,0,0.1,0c0.1,0,0.2-0.1,0.3-0.1c0.2-0.1,0.3-0.1,0.5-0.1c0.1,0,0.2-0.1,0.3-0.1c0,0.1-0.1,0.2-0.1,0.3
				c0,0.1-0.1,0.2-0.2,0.2c0,0,0.1,0,0.1,0C28,27.9,28,28,27.9,28.1c0,0.1-0.1,0.1-0.2,0.1c-0.1,0-0.1,0.1-0.2,0.1
				c0.1,0,0.2,0,0.2,0c0.1,0,0.2,0,0.2-0.1c0,0,0.1-0.1,0.1-0.1c0,0,0.1,0.1,0.1,0.1c0,0.2,0,0.4-0.1,0.5c0,0.1-0.1,0.3-0.2,0.4
				c-0.1,0.2-0.3,0.3-0.5,0.3c-0.2,0-0.3,0-0.3,0.2c0,0,0,0.1,0,0.1c0,0,0,0,0,0c0-0.1,0-0.1,0-0.2c-0.1,0.1-0.1,0.1-0.1,0.2
				c0,0.1-0.2,0.2-0.2,0.1c-0.1-0.1-0.3-0.1-0.3,0.1c0,0.2-0.2,0.2-0.3,0.2c-0.1,0-0.1,0.1-0.2,0.1c-0.1,0-0.2,0.1-0.3,0
				c0,0-0.1,0-0.1,0c-0.1,0.1-0.3,0-0.4,0.2c0,0,0,0-0.1,0c-0.3,0-0.4,0.2-0.6,0.3c-0.1,0.1-0.3,0.2-0.4,0.4c-0.1,0-0.1,0.1-0.2,0
				c0,0-0.1-0.1-0.1-0.1c-0.1,0-0.1,0.1-0.2,0.1c0,0.1-0.1,0.1-0.2,0.1c-0.2,0-0.2,0.1-0.3,0.2c-0.1,0.1-0.1,0.2-0.3,0.1
				c0,0-0.1,0-0.1,0c-0.1,0.1-0.2,0.2-0.3,0.2c-0.2,0.1-0.3,0.2-0.5,0.2c-0.1,0-0.2,0.1-0.3,0.1c-0.3,0.2-0.5,0.4-0.9,0.4
				c0,0-0.1,0-0.1,0c-0.1,0.1-0.3,0.1-0.4,0.2c0,0-0.1,0.1-0.1,0.1c0,0.1-0.1,0.2-0.1,0.3c0,0,0,0-0.1,0.1c-0.1,0-0.2,0-0.3,0
				c-0.1,0-0.1,0-0.2,0c-0.3,0.2-0.5,0.3-0.8,0.5c-0.1,0-0.1,0-0.2,0.1c-0.1,0-0.1,0.1-0.2,0.1c-0.3,0-0.5,0.2-0.7,0.3
				c-0.2,0.2-0.4,0.4-0.6,0.5c-0.2,0.1-0.4,0.2-0.6,0.3c-0.2,0.1-0.4,0.2-0.7,0.3c-0.1,0.1-0.2,0.1-0.2,0.2
				c-0.1,0.1-0.2,0.2-0.3,0.2c0,0-0.1,0.1-0.1,0.1c-0.3-0.1-0.4,0.2-0.6,0.3c-0.1,0.1-0.2,0.3-0.4,0.3c0,0,0,0,0,0
				c-0.3,0.2-0.6,0.5-0.9,0.7c0,0-0.1,0-0.2,0.1c0,0,0,0.1,0,0.1c0.2-0.1,0.4-0.2,0.6-0.4c0,0.1,0,0.2-0.1,0.3c0,0-0.1,0.1-0.1,0.1
				c-0.3-0.1-0.2,0.1-0.2,0.2c0.1-0.1,0.2-0.1,0.3-0.2c0,0,0,0,0,0c0,0.1-0.1,0.2-0.1,0.2c-0.1,0.1-0.2,0.1-0.2,0.1
				c-0.2,0.1-0.3,0.3-0.5,0.5c-0.2,0.1-0.3,0.2-0.4,0.4c0,0-0.1,0-0.1,0.1c-0.2,0.2-0.4,0.3-0.6,0.5c-0.2,0.1-0.3,0.2-0.5,0.4
				c-0.1,0-0.2,0.1-0.2,0.1c-0.1,0.2-0.2,0.3-0.4,0.4c-0.3,0.2-0.5,0.4-0.8,0.6c-0.3,0.2-0.6,0.5-0.9,0.7c-0.3,0.2-0.7,0.5-0.9,0.9
				c0,0,0,0.1,0,0.1c0.1,0,0.1-0.1,0.2-0.1c0.3-0.3,0.6-0.6,0.9-0.9c0.4-0.3,0.8-0.6,1.2-0.9c0.4-0.3,0.7-0.6,1.1-0.9
				c0.2-0.2,0.4-0.3,0.6-0.5c0.1-0.1,0.3-0.2,0.4-0.3c0.1-0.1,0.2-0.2,0.3-0.3c0-0.1,0.1-0.1,0.2-0.1c0.2,0,0.3-0.1,0.4-0.2
				c0.1-0.1,0.1-0.2,0.2-0.2c0.2-0.1,0.3-0.2,0.5-0.3c0,0,0.1,0,0.1-0.1c0-0.2,0.1-0.2,0.2-0.3c0,0,0.1,0,0.1-0.1
				c0.1-0.2,0.3-0.4,0.6-0.3c0,0,0.1,0,0.1-0.1c0.1-0.1,0.2-0.2,0.3-0.3c0.2-0.1,0.5-0.1,0.6-0.4c0,0,0,0,0,0
				c0.2-0.1,0.3-0.2,0.5-0.4c0.1-0.1,0.2-0.2,0.2-0.2c0.2,0,0.4-0.2,0.7-0.2c0,0,0,0,0,0c0.1-0.1,0.2-0.1,0.2-0.2
				c0.1-0.1,0.2-0.1,0.3-0.2c0.1-0.1,0.3,0,0.2-0.2c0.3-0.1,0.2-0.1,0.4-0.3c0-0.1,0.1-0.1,0.2-0.1c0,0,0,0,0,0c0,0.1,0,0.1-0.1,0.2
				c0.1,0,0.1-0.1,0.2-0.1c0.1,0,0.2-0.1,0.3-0.2c0-0.1,0.1-0.1,0.2-0.1c0.3,0,0.3,0,0.5-0.2c0-0.1,0.1-0.1,0.1-0.1
				c0.1-0.1,0.2-0.1,0.3-0.2c0,0,0.1-0.1,0.2-0.1c0.1,0,0.1,0,0.2,0c0,0,0,0,0-0.1c0-0.1,0.1-0.1,0.1-0.2c0,0,0.1,0.1,0.1,0.1
				c0.2-0.1,0.4-0.2,0.5-0.3c0-0.1,0-0.2,0.2-0.2c0.1,0,0.2-0.1,0.3-0.1c0.2-0.1,0.4-0.2,0.6-0.3c0.2-0.1,0.4-0.2,0.6-0.4
				c0.2-0.2,0.5-0.3,0.7-0.4c0.3-0.1,0.5-0.2,0.7-0.5c0.1,0.1,0.2,0,0.3,0c0.1-0.1,0.2-0.2,0.3-0.2c0.4-0.1,0.7-0.3,1-0.6
				c0.1,0,0.2,0,0.3,0c0,0.1-0.1,0.3-0.1,0.4c0.1,0,0.2,0,0.2,0c0,0,0,0,0,0c-0.1,0-0.2,0.1-0.3,0.1c0.2,0.1,0.2,0.2,0.2,0.3
				c0,0.1-0.1,0.2-0.2,0.3c0,0,0,0,0,0c0,0,0,0.1,0.1,0.1c-0.3,0-0.2,0.3-0.3,0.4c0,0,0.1,0.1,0.1,0.1c-0.1,0.2-0.2,0.5-0.3,0.7
				c-0.1,0.2-0.1,0.3-0.2,0.5c0,0,0.1,0,0.1,0.1c0-0.1,0.1-0.2,0.1-0.2c0-0.1,0.1-0.1,0.2-0.1c0,0.1,0.1,0.1,0.1,0.2
				c0,0.1,0,0.2,0,0.3c-0.2,0.6-0.3,1.2-0.6,1.8c-0.1,0.2-0.2,0.5-0.2,0.8c-0.1,0.2-0.2,0.5-0.2,0.7c-0.1,0.3-0.2,0.6-0.3,1
				c-0.1,0.3-0.3,0.5-0.3,0.8c0,0.2-0.1,0.4-0.1,0.6c-0.1,0.3-0.2,0.7-0.3,1c0,0.2-0.1,0.3-0.1,0.5c0,0.1-0.1,0.3-0.1,0.4
				c-0.1,0.3-0.1,0.6-0.2,1c0,0.2-0.2,0.3-0.1,0.5c0,0,0,0.1-0.1,0.1c-0.1,0.1-0.1,0.2-0.1,0.4c0,0.1,0,0.2-0.1,0.3
				c0,0-0.1,0.1,0,0.1c0.1,0.2,0,0.4-0.1,0.6c0.2,0.1,0.1,0.2,0,0.2c0,0-0.1,0.1-0.1,0.1c0,0.1,0,0.3,0,0.4c0,0.2-0.1,0.3-0.3,0.3
				c0-0.1,0-0.2,0.1-0.2c0-0.2,0.1-0.4,0.1-0.5c0-0.1,0-0.2,0-0.3c0-0.1,0-0.2,0-0.3C23,44.1,23,44.1,23.2,44c0-0.1,0-0.3,0.1-0.4
				c0-0.1,0-0.2,0.1-0.4c0-0.1,0-0.2-0.2-0.3c0.1-0.1,0.1-0.1,0.2-0.2c0-0.1,0-0.1,0.1-0.2c-0.1,0.1-0.1,0.1-0.2,0.2
				c0,0.1-0.1,0.1-0.1,0.2c-0.1,0.3-0.1,0.6-0.1,0.9c0,0.2,0,0.3,0,0.5c0,0.2,0,0.4-0.1,0.6c0,0.1-0.1,0.1-0.1,0.1
				c0.1,0.1,0,0.2-0.1,0.2c0.1,0.1,0.1,0.2,0,0.2c-0.1,0.1-0.1,0.2,0,0.3c0.1,0.1,0.1,0.3,0,0.4c-0.1,0.1-0.2,0.1-0.2,0.2
				c0,0,0,0,0,0c0,0.1-0.1,0.2-0.1,0.3c0,0.1-0.1,0.3-0.1,0.4c0,0.4,0,0.8,0,1.2c0,0.5,0,0.9,0,1.4c0,0.5,0,1,0,1.4
				c0,0.7,0,1.4,0,2.1c0,0.9,0.2,1.7,0.5,2.5c0.1,0.5,0.3,1,0.5,1.4c0.2,0.6,0.4,1.1,0.8,1.5c0.1,0.1,0.2,0.3,0.3,0.4
				c0.3,0.2,0.4,0.6,0.6,0.9c0,0.1,0.1,0.2,0.2,0.3c0.2,0.3,0.5,0.6,0.7,0.8c0.1,0.1,0.3,0.2,0.5,0.2c0.1,0,0.3,0.1,0.4,0.2
				c0.1,0.1,0.1,0.2,0.2,0.3c0,0.1,0.1,0.1,0.1,0.2c0.1,0.3,0.4,0.4,0.6,0.6c0-0.1,0-0.1,0-0.1c0.2-0.2,0.1-0.2-0.1-0.4
				c-0.1-0.1-0.2-0.2-0.2-0.3c0,0,0-0.1,0-0.2c0.1,0,0.1,0,0.2,0c0.1,0,0.1,0,0.2,0c0.1,0,0.2,0,0.3,0c0.2,0,0.4,0.1,0.6,0.1
				c0-0.2,0.1-0.2,0.2-0.2c0.1,0,0.1,0,0.2,0c0.3,0.1,0.4,0.1,0.6-0.2c0,0,0.1-0.1,0.1-0.1c0,0,0.1-0.1,0.2-0.1
				c0.1,0,0.2,0.1,0.2,0.2c0.1,0.2,0.4,0.4,0.5,0.3c0.2-0.1,0.3,0,0.4,0.1c0.2,0.1,0.3,0.2,0.5,0.4c0-0.1,0-0.2,0-0.3
				c0.1-0.1,0-0.2-0.1-0.2C31.1,62,31,62,30.9,61.8c0-0.2-0.1-0.3,0-0.4c0,0,0,0,0-0.1c-0.1-0.1,0-0.2,0.1-0.2c0.2,0,0.4-0.1,0.5,0
				c0,0,0.1,0,0.2-0.1c0,0,0-0.1-0.1-0.1c0-0.1-0.1-0.1-0.1-0.2c0,0,0,0,0,0c0.3,0,0.5,0,0.8,0.1c-0.1-0.1-0.2-0.3-0.3-0.4
				c-0.2-0.2-0.4-0.4-0.5-0.7c0-0.1,0-0.3,0.2-0.3c0.2,0,0.4,0,0.6,0.1c0.2,0.1,0.4,0.2,0.6,0.3c0-0.1-0.1-0.2,0-0.2
				c0.1-0.1,0-0.2-0.1-0.3c-0.1-0.1-0.1-0.3-0.2-0.4c0-0.1,0-0.2,0.1-0.2c0.1,0,0.2-0.1,0.3-0.2c-0.1-0.1-0.1-0.1-0.2-0.2
				c0,0-0.1-0.1-0.1-0.1c-0.2-0.2-0.3-0.3-0.1-0.5c0,0,0-0.1,0-0.1c-0.2-0.2-0.4-0.4-0.6-0.6C32,56.8,32,56.7,32,56.6
				c0.1-0.2,0.3-0.4,0.3-0.7c0-0.1,0.1-0.3,0.1-0.4c0-0.2,0.2-0.4,0.2-0.7c0,0,0,0,0-0.1c0,0,0.1-0.1,0-0.1c0-0.1,0-0.3,0.1-0.3
				c0-0.1-0.1-0.2-0.1-0.2c0,0,0-0.1,0-0.2c0,0,0-0.1,0-0.1c0.2-0.1,0.2-0.4,0.1-0.6c-0.1,0-0.1,0-0.2,0c0,0.2-0.1,0.4-0.3,0.4
				c0-0.1,0.1-0.2,0.1-0.3c0-0.2,0-0.3,0.2-0.3c0-0.1,0-0.2,0-0.2c-0.1-0.1-0.2-0.2-0.3-0.2c0.1,0.2,0,0.5-0.2,0.6
				c0-0.2,0-0.4,0-0.6c0,0,0-0.1,0-0.1c-0.1-0.1-0.1-0.2,0-0.2c-0.1-0.2-0.1-0.4-0.2-0.6c0-0.1,0-0.2-0.1-0.3
				c-0.1-0.1-0.1-0.2-0.2-0.4c0-0.1-0.1-0.3-0.1-0.4c0-0.3-0.1-0.5-0.1-0.8c0,0-0.1,0-0.1,0c-0.1,0-0.2-0.1-0.2-0.1
				c-0.1-0.1-0.1-0.3-0.1-0.4c0-0.2,0-0.4,0-0.6c0-0.1,0-0.1,0-0.2c-0.1-0.3,0-0.6,0-0.9c0-0.2,0-0.3,0-0.5c0-0.2,0-0.4,0-0.5
				c0-0.2,0.1-0.3,0.1-0.5c0-0.1,0.1-0.3,0.1-0.4c0,0,0,0,0-0.1c0,0-0.1,0-0.1,0c0-0.1,0.1-0.5,0.2-0.6c0,0,0-0.1,0-0.1
				c-0.1-0.1-0.1-0.2,0-0.3c0.1-0.2,0.1-0.5,0-0.7c0-0.1,0.1-0.2,0.1-0.2c0-0.1,0-0.3,0.2-0.3c0,0,0.1-0.1,0-0.1
				c-0.1-0.1,0-0.2,0.1-0.3c0,0,0.1-0.1,0.1-0.1c-0.2-0.1-0.1-0.2-0.1-0.3c0.1-0.3,0.2-0.6,0.4-0.8c0.1-0.2,0.3-0.3,0.1-0.5
				c0,0,0,0,0,0c0.1-0.2,0.1-0.5,0.4-0.6c0,0,0.1,0,0.1-0.1c0-0.2,0.1-0.4,0.2-0.5c0.1-0.2,0.2-0.4,0.2-0.5c0.1-0.1,0.2-0.3,0.4-0.3
				c0.1,0,0.2-0.1,0.2-0.1c0.1-0.2,0.2-0.5,0.3-0.7c0.1-0.2,0.2-0.4,0.3-0.7c0-0.2,0.1-0.3,0.2-0.4c0-0.2,0.1-0.3,0.1-0.4
				c0-0.1,0.1-0.1,0.1-0.1c0.1,0,0.1,0.1,0.2,0.2c0,0,0,0.1,0,0.2c0,0,0,0.1,0,0.1c0,0,0.1,0,0.1,0c0.1-0.1,0.2-0.1,0.4-0.2
				c0,0,0.1,0,0.1,0c0-0.1,0-0.2,0.2-0.3c0.3,0,0.3-0.3,0.4-0.5c0.1-0.2,0.2-0.4,0.4-0.5c0.2-0.2,0.2-0.4,0.3-0.6c0,0,0,0,0,0
				c-0.1-0.1,0-0.2,0.1-0.2c0,0,0.1-0.1,0.1-0.1c0.1-0.3,0.3-0.5,0.6-0.7c0.1-0.1,0.2-0.2,0.2-0.3c0.1-0.1,0.1-0.2,0.2-0.4
				c0-0.1,0.1-0.1,0.1-0.2c0.1-0.2,0.2-0.3,0.3-0.5c0-0.1,0.1-0.2,0.2-0.2c0.2,0,0.3-0.2,0.4-0.3c0.1-0.1,0.1-0.3,0.3-0.5
				c0.2-0.2,0.2-0.5,0.5-0.7c0.1,0,0.1-0.1,0.1-0.2c0-0.3,0.1-0.3,0.3-0.3c0,0,0.1,0,0.1,0c0.2-0.1,0.2-0.4,0.5-0.4c0,0,0,0,0,0
				c0.1-0.1,0.2-0.1,0.2,0c0,0.1,0.1,0.1,0.2,0.1c0,0,0.1,0,0.2,0c0,0.1,0,0.1,0,0.2c-0.1,0-0.1,0-0.2,0.1c0.1,0,0.2,0,0.2,0
				c0.1,0,0.2,0,0.2,0c0,0.1,0.1,0.2,0,0.2c-0.1,0.2-0.2,0.4-0.3,0.6c0,0,0,0.1-0.1,0.1c0,0,0,0.1,0,0.1c0,0,0,0,0,0
				c0-0.1,0.1-0.1,0.1-0.2c0.1-0.1,0.1-0.2,0.2-0.3c0.2-0.3,0.3-0.6,0.5-0.8c0.1-0.2,0.3-0.4,0.7-0.4c0.3,0.1,0.4-0.2,0.3-0.4
				c0-0.1-0.1-0.3-0.1-0.4c0-0.1,0-0.2,0-0.2c0.1-0.1,0.1-0.2,0.2-0.3c0.1-0.1,0.2-0.3,0.3-0.4c0.3-0.2,0.5-0.3,0.8-0.5
				c0,0,0.1,0,0.2,0c0.1,0.1,0.3,0.2,0.4,0.2c0.2,0,0.3,0,0.4,0.1c0.1,0.1,0.2,0,0.3-0.1c0-0.1,0.1-0.2,0.1-0.2
				c0.2-0.1,0.4-0.1,0.6-0.2c0,0,0.1,0,0.1,0c0.2-0.2,0.4-0.3,0.7-0.3c0.1,0,0.3,0,0.4-0.1c0.3-0.2,0.6-0.3,0.8-0.6
				c0.2-0.2,0.4-0.5,0.5-0.7c0.2-0.3,0.1-0.7,0.1-1.1C48.8,24.3,48.8,24.2,48.7,24.1z M4.7,20.6c0.1-0.1,0.1-0.1,0.2-0.2
				c0,0,0,0,0.1,0c0,0.1-0.1,0.1-0.1,0.2C4.8,20.6,4.8,20.7,4.7,20.6C4.7,20.6,4.7,20.6,4.7,20.6z M-1.5,29.6
				C-1.5,29.6-1.5,29.6-1.5,29.6c0-0.1,0-0.2,0.1-0.3c0-0.1,0-0.1,0-0.2c0.1,0,0.1,0,0.2,0C-1.3,29.3-1.4,29.5-1.5,29.6z M18.9,31.1
				c0-0.2,0.2-0.3,0.3-0.3c0,0,0,0,0,0.1C19.1,31,19,31.1,18.9,31.1z M17.9,20.7C17.9,20.7,17.8,20.7,17.9,20.7
				c-0.2,0.2-0.4,0.3-0.6,0.4c-0.4,0.2-0.7,0.3-1.1,0.5c-0.2,0.1-0.4,0.2-0.5,0.3c0,0-0.1,0-0.1,0c-0.1,0.1-0.2,0.2-0.4,0.3
				c-0.7,0.4-1.4,0.7-2,1.1c-0.3,0.2-0.6,0.3-0.8,0.5c-0.5,0.2-0.9,0.5-1.4,0.7c-0.3,0.1-0.6,0.3-0.9,0.4c0,0-0.1,0-0.1,0
				c0.1-0.1,0.1-0.2,0.1-0.3c0.1-0.3,0.2-0.5,0.4-0.7c0.2-0.2,0.2-0.4,0.4-0.7c0,0,0,0,0-0.1c0.2-0.3,0.4-0.6,0.6-0.8
				c0.2-0.2,0.2-0.4,0.4-0.6c0.1-0.1,0.2-0.2,0.3-0.4c0.2-0.2,0.4-0.4,0.6-0.6c0.1-0.2,0.2-0.3,0.3-0.5c0-0.1,0.1-0.1,0.2-0.2
				c0.1-0.1,0.2-0.1,0.3-0.2c0,0,0.1-0.1,0.1-0.1c0-0.2,0.2-0.3,0.4-0.5c0,0,0.1-0.1,0.1-0.1c0.1-0.3,0.3-0.5,0.5-0.6
				c0.1-0.1,0.1-0.1,0.2-0.2c0.1-0.2,0.3-0.3,0.4-0.5c0,0,0.1-0.1,0.1-0.1c0.2-0.1,0.3-0.3,0.3-0.5c0,0,0.1-0.1,0.1-0.1
				c0.2-0.1,0.5-0.2,0.6-0.5c0.1-0.2,0.4-0.3,0.5-0.5c0,0,0,0,0,0c-0.1,0.2-0.1,0.4-0.2,0.7c0,0.1,0,0.2-0.1,0.3
				c0,0.1-0.1,0.1-0.2,0.2c-0.1,0.1-0.2,0.3-0.2,0.4c0,0.3,0,0.3-0.2,0.4c0,0-0.1,0.1-0.1,0.1c0.1,0,0.2,0.1,0.3,0.1
				c-0.2,0.2-0.3,0.3-0.5,0.5c0,0,0,0,0,0c0.2-0.1,0.4-0.1,0.5-0.2c0.2-0.1,0.4-0.1,0.6-0.1c0.2,0,0.3,0.1,0.5,0.2
				c0.2,0.2,0.3,0.5,0.4,0.8c0,0.1,0.1,0.1,0.1,0.2c0.1,0.1,0.1,0.2,0.2,0.3c0.1,0.2,0.2,0.3,0.3,0.5C18.1,20.6,18,20.8,17.9,20.7z
				 M19,14.5c-0.2,0.2-0.4,0.4-0.7,0.4c-0.1,0-0.1,0.1-0.2,0.1c-0.1,0.1-0.2,0.3-0.4,0.3c0.2-0.2,0.3-0.4,0.4-0.5
				c0.2-0.2,0.4-0.4,0.7-0.4c0.1,0,0.1-0.1,0.2-0.1C19.1,14.3,19.1,14.4,19,14.5z M21,13.6c-0.1,0.1-0.1,0.1-0.2,0.1
				c-0.1,0.1-0.3,0.2-0.4,0.3c-0.2,0.3-0.5,0.5-0.8,0.7c-0.2,0.1-0.3,0-0.4-0.1c-0.1-0.1,0.1-0.2,0.1-0.3c0.2-0.2,0.4-0.4,0.6-0.7
				c0.1-0.1,0.1-0.1,0.2-0.1c0.1-0.1,0.1-0.1,0.2-0.2c0.1-0.1,0.2-0.1,0.3-0.2c0.1-0.2,0.5-0.1,0.6-0.4c0,0,0.2-0.1,0.2-0.1
				c0-0.1,0-0.2,0.1-0.2c0.1,0,0.1,0,0.1,0.1c0,0,0,0,0,0c0.2,0.1,0.2,0.3,0,0.4C21.4,13.2,21.2,13.4,21,13.6z M23.1,18.6
				c0-0.2,0-0.3,0.2-0.3c0,0.1,0,0.2,0.1,0.2C23.3,18.5,23.2,18.6,23.1,18.6z M14.9,36.7c0,0-0.1,0-0.1,0c0,0,0-0.1,0.1-0.1
				c0.1-0.1,0.2-0.2,0.4-0.2C15.1,36.6,15,36.7,14.9,36.7z"/>
			<path d="M6,17.4C6,17.4,6,17.4,6,17.4c0.1-0.1,0.2-0.2,0.3-0.3c0.2-0.2,0.3-0.5,0.5-0.7C6.9,16.3,7,16.1,7.1,16
				c0.1-0.2,0.3-0.3,0.4-0.5c0.1-0.1,0.1-0.1,0-0.1c-0.1,0.2-0.3,0.3-0.4,0.4C7,15.9,6.9,16,6.8,16.2c-0.1,0.1-0.2,0.2-0.3,0.3
				c-0.1,0-0.2,0.2-0.2,0.2c0.1,0.1,0,0.2-0.1,0.2c0,0-0.1,0-0.1,0C6,17,5.9,17.1,5.8,17.2c0.1,0,0.1,0,0.2,0C6,17.3,6,17.3,6,17.4z
				"/>
			<path d="M23.7,29.6c-0.3,0.1-0.6,0.3-0.8,0.4c-0.1,0-0.1,0.1-0.1,0.1c-0.1,0.1-0.3,0.2-0.4,0.3c-0.1,0.1-0.1,0.1-0.2,0.2
				c0,0,0,0,0.1,0c0,0,0.1,0,0.1-0.1c0-0.2,0.2-0.2,0.3-0.3c0.2-0.1,0.3-0.2,0.5-0.3c0.3-0.2,0.6-0.3,0.9-0.5c0,0,0.1-0.1,0.1-0.1
				c0,0,0,0,0,0C23.9,29.5,23.8,29.5,23.7,29.6z"/>
			<path d="M26,34.3c-0.1-0.1-0.1-0.1-0.2-0.2c-0.1,0.4-0.3,0.7-0.4,1.1c0.1,0,0.2,0,0.3-0.1c0-0.1,0-0.1-0.1-0.3
				c0.1-0.1,0.2-0.1,0.3-0.2C25.9,34.5,25.9,34.4,26,34.3z"/>
			<path d="M22,31c0.1-0.1,0.2-0.1,0.3-0.2c0.3-0.1,0.6-0.1,0.8-0.4c0,0,0,0,0,0c0.1-0.1,0.2-0.1,0.3-0.2c0,0,0,0,0,0
				c0,0-0.1,0-0.1,0c-0.1,0.1-0.3,0.1-0.4,0.2c-0.2,0.1-0.5,0.2-0.7,0.4C22.1,30.9,22,30.9,22,31z"/>
			<path d="M-2.5,32.3c0.3,0,0.4-0.1,0.4-0.3c0.1-0.1,0.3-0.2,0.3-0.4c-0.1,0-0.1,0-0.2,0c-0.1,0.1-0.2,0.2-0.3,0.3
				C-2.3,32.1-2.4,32.2-2.5,32.3z"/>
			<path d="M23.4,13c-0.1,0.1-0.2,0.2-0.4,0.3c0,0-0.1,0-0.1,0.1c-0.1,0.1-0.3,0.2-0.4,0.3c0,0,0,0.1,0,0.1c0,0,0,0,0,0
				c0,0,0.1-0.1,0.1-0.1c0.2-0.1,0.4-0.2,0.6-0.4c0.1,0,0.1-0.1,0.2-0.1c0.1-0.1,0.2-0.2,0.3-0.3C23.6,12.9,23.4,12.9,23.4,13z"/>
			<path d="M23.5,41.2c0,0.2-0.1,0.3-0.1,0.5c0,0,0,0,0,0c0.1-0.1,0.2-0.2,0.2-0.3c-0.1-0.1,0-0.1,0.1-0.2c0.1-0.1,0.1-0.2,0.1-0.3
				c0,0,0,0-0.1,0C23.6,40.9,23.5,41.1,23.5,41.2z"/>
			<path d="M25.2,28.7c0,0.1-0.1,0.1-0.1,0.1c0,0,0,0.1-0.1,0.1c-0.2,0.1-0.4,0.1-0.5,0.2c-0.1,0-0.2,0.1-0.2,0.2
				c0.3-0.1,0.6-0.2,0.8-0.3C25.3,29,25.3,28.9,25.2,28.7z"/>
			<path d="M9.1,14.1C9.1,14.1,9.1,14.1,9.1,14.1c-0.3,0.2-0.6,0.5-0.8,0.8c0,0,0,0,0.1,0.1C8.6,14.7,8.9,14.4,9.1,14.1z"/>
			<path d="M24.9,37.2c-0.2,0-0.3,0-0.3,0.2c0,0.1-0.1,0.3-0.1,0.4C24.7,37.6,24.8,37.4,24.9,37.2z"/>
			<path d="M24.1,39.7c-0.2,0-0.3,0.1-0.3,0.3c0,0.2,0,0.3,0,0.5c0.1,0,0.1-0.1,0.1-0.2c0-0.1,0-0.1,0-0.2
				C23.9,40,24,39.9,24.1,39.7z"/>
			<path d="M27.8,27.7c-0.1,0-0.1-0.1-0.1-0.1c-0.2,0.1-0.3,0.2-0.4,0.2c0,0,0,0,0,0.1C27.4,28,27.6,27.9,27.8,27.7z"/>
			<path d="M33.6,9c0,0.1,0.1,0.2,0.1,0.3c0.1-0.1,0.2-0.1,0.2-0.2c0-0.1-0.1-0.2-0.1-0.2C33.8,9,33.7,9,33.6,9z"/>
			<path d="M27.1,27.9c-0.2,0-0.4,0.3-0.4,0.4C26.8,28.2,27,28.1,27.1,27.9C27.1,28,27.1,28,27.1,27.9z"/>
			<path d="M33.5,8.2c0.1,0,0.2,0,0.4,0.1c-0.1-0.1-0.1-0.1-0.1-0.2c-0.1,0-0.1-0.1-0.2-0.1C33.5,8,33.5,8.1,33.5,8.2
				C33.5,8.2,33.5,8.2,33.5,8.2z"/>
			<path d="M6.3,17.7c0.1-0.1,0.2-0.2,0.3-0.4C6.4,17.4,6.3,17.5,6.3,17.7z"/>
			<path d="M21.2,31.3c0.2,0.1,0.3,0,0.4-0.2C21.5,31.2,21.4,31.2,21.2,31.3z"/>
			<path d="M7.1,16.6c0.1-0.1,0.2-0.3,0.3-0.4C7.2,16.3,7.1,16.4,7.1,16.6z"/>
			<path d="M24.1,39.2c0.2-0.1,0.2-0.1,0.1-0.2c0,0,0.1-0.1,0.1-0.1C24.2,39,24.1,39,24.1,39.2z"/>
			<polygon points="7.4,16.2 7.4,16.2 7.4,16.2 7.4,16.2 7.4,16.2 			"/>
			<path d="M7.4,16.2c0.1-0.1,0.2-0.3,0.3-0.4c0,0,0,0,0,0c0,0-0.1,0.1-0.1,0.1C7.3,16,7.4,16.1,7.4,16.2z"/>
			<polygon points="7.7,15.8 7.7,15.8 7.7,15.8 7.7,15.8 7.7,15.8 			"/>
			<path d="M24.5,38.3c0-0.1,0-0.3,0-0.4c-0.1,0.1-0.1,0.2-0.2,0.3C24.3,38.3,24.4,38.3,24.5,38.3z"/>
			<path d="M6,18.1c0.1-0.1,0.2-0.2,0.3-0.4C6.2,17.7,6,17.9,6,18.1z"/>
			<path d="M7.9,15.5C7.9,15.5,7.9,15.5,7.9,15.5c-0.1,0.1-0.2,0.2-0.3,0.3C7.8,15.8,7.9,15.7,7.9,15.5z"/>
			<path d="M-3.1,32.3c-0.1,0.1-0.2,0.1-0.3,0.1c0,0,0,0,0,0C-3.1,32.4-3.1,32.4-3.1,32.3z"/>
			<path d="M23.7,40.8c0.1,0,0.1,0,0.2-0.1c0,0,0-0.1-0.1-0.1C23.8,40.7,23.7,40.7,23.7,40.8C23.7,40.7,23.7,40.8,23.7,40.8z"/>
			<path d="M25,29.4c-0.2,0.1-0.3,0.2-0.4,0.2C24.8,29.7,24.9,29.6,25,29.4z"/>
			<path d="M23.9,29.9c0.1,0,0.3,0,0.4-0.1c0,0,0,0,0,0C24.2,29.9,24,29.9,23.9,29.9C23.9,29.9,23.9,29.9,23.9,29.9z"/>
		</g>
	</g>
</g>
</svg>
